# xmcd
#
# Track frame offsets: 
#        150
#        17479
#        37198
#        56223
#        77276
#        91868
#        108272
#        123847
#        144810
#        159886
#        177960
#        188964
#        208149
#
# Disc length: 3061 seconds
#
# Revision: 0
# Processed by: cddbd v1.5.2PL0 Copyright (c) Steve Scherf et al.
# Submitted via: ExactAudioCopy v1.3
#
DISCID=9e0bf30d
DTITLE=The Darlings - The Cicada Sessions
DYEAR=2007
DGENRE=Pop
TTITLE0=Looks alright in the light
TTITLE1=So near but so far
TTITLE2=Natural
TTITLE3=Queen for a day
TTITLE4=Counting
TTITLE5=Too old
TTITLE6=Crash
TTITLE7=Settle down
TTITLE8=Simple melody
TTITLE9=Wrap around love
TTITLE10=Big mistake
TTITLE11=Island in my room
TTITLE12=The Hallelujah ride
EXTD=
EXTT0=
EXTT1=
EXTT2=
EXTT3=
EXTT4=
EXTT5=
EXTT6=
EXTT7=
EXTT8=
EXTT9=
EXTT10=
EXTT11=
EXTT12=
PLAYORDER=
